<svg version="1.1" width="413px" height="408px" style="shape-rendering:geometricPrecision; text-rendering:geometricPrecision; image-rendering:optimizeQuality; fill-rule:evenodd; clip-rule:evenodd" xmlns="http://www.w3.org/2000/svg">
  <defs></defs>
  <g>
    <path style="opacity: 1;" fill="#5043d8" d="M 144.5 19.5 C 144.5 19.5 270.611 20.117 270.5 19.5 C 281.212 20.214 286.58 19.366 305.5 25.669 C 315.285 28.929 324.179 33.84 332.5 39.5 C 339.098 43.59 341.337 45.338 346.5 49.5 C 351.355 53.515 354.6 55.32 357.5 59.5 C 360.664 62.206 362.838 65.014 366.054 69.223 C 373.575 79.089 382.252 95.108 385.054 103.223 C 386.715 107.982 388.279 114.129 389.5 120.5 C 390.331 124.989 391.677 134.766 391.5 138.5 C 390.167 184.5 390.167 230.5 391.5 276.5 C 391.303 284.077 390.552 287.825 388.5 296.5 C 386.401 303.477 383.735 310.143 380.5 316.5 C 376.475 324.618 376.268 325.619 372.5 331.5 C 370.906 335.03 370.279 335.671 367.5 339.5 C 363.785 344.712 356.029 353.571 350.5 358.5 C 346.624 362.378 344.122 364.213 340.5 366.5 C 336.231 369.968 331.824 373.729 324.964 376.653 C 320.538 379.988 316.989 381.5 312.777 382.885 C 304.301 385.756 299.445 387.125 290.5 388.5 C 284.295 389.936 277.962 390.769 271.5 391 C 227.5 391.667 183.5 391.667 139.5 391 C 132.045 390.316 129.91 390.882 123.5 389.5 C 116.948 388.335 109.669 386.867 104.5 384.5 C 95.816 381.679 94.066 380.168 88.5 376.5 C 78.072 371.293 68.739 364.627 60.5 356.5 C 53.585 351.17 50.447 345.943 46.5 340.5 C 41.41 333.867 39.209 329.818 36.5 324.5 C 33.904 319.576 31.863 316.174 30.5 312.5 C 27.726 306.507 25.726 300.174 24.5 293.5 C 22.58 287.454 21.303 277.75 21.5 272.5 C 22.833 227.833 22.833 183.167 21.5 138.5 C 21.5 137.5 21.695 132.364 22.5 125.5 C 23.302 117.256 25.302 109.256 28.5 101.5 C 32.673 89.798 34.884 87.374 40.5 78.5 C 48.396 66.023 51.811 62.886 59.301 55.368 C 70.821 44.656 74.434 43.439 81.5 38.5 C 86.478 35.507 86.569 34.894 92.5 32.5 C 99.859 28.932 107.526 25.932 115.5 23.5 C 125.922 21.14 136.732 20.042 144.5 19.5 Z M 137.5 127.5 C 145.057 133.181 144.574 133.379 146.964 137.616 C 149.17 142.347 149.39 142.343 150.5 146.5 C 151.261 149.692 151.384 149.668 151.5 154.5 C 151.004 159.78 151.18 162.342 147.5 169.5 C 145.189 173.084 143.568 174.923 139.5 178.5 C 137.4 180.076 135.938 181.136 133.5 182.5 C 131.214 183.408 130.143 183.727 127.5 184.384 C 122.438 184.61 117.438 184.392 112.5 183.5 C 109.509 182.629 106.509 181.629 103.5 180.5 C 101.178 178.556 100.516 178.59 98.036 176.429 C 95.86 173.354 93.299 172.551 90.5 165.5 C 87.834 157.502 87.834 149.502 90.5 141.5 C 91.735 138.989 92.603 136.772 94.5 134.5 C 97.545 131.453 100.878 128.787 104.5 126.5 C 115.668 121.014 126.668 121.347 137.5 127.5 Z M 288.5 122.5 C 293.537 122.413 298.537 122.746 303.5 123.5 C 306.59 125.065 307.59 125.002 309.939 126.749 C 316.272 131.082 318.167 134.167 322.5 140.5 C 324.366 145.455 325.084 151.084 324.5 156.5 C 324.235 158.955 323.321 162.392 322.5 165.5 C 321.427 167.976 321.352 168.717 319.5 171.5 C 317.065 174.292 316.34 176.281 311.5 179.5 C 309.202 181.461 307.461 181.27 303.5 182.5 C 296.585 184.26 289.718 184.393 282.5 182.5 C 279.725 181.852 274.558 179.024 272.5 177.5 C 270.823 175.46 269.156 173.46 267.5 171.5 C 265.62 168.489 264.264 165.972 263.5 162.5 C 262.728 158.548 262.395 154.548 262.5 150.5 C 263.129 144.608 265.129 139.275 268.5 134.5 C 272.337 130.724 271.902 129.33 277.5 126.5 C 280.978 124.742 284.663 123.445 288.5 122.5 Z M 161.5 213.5 C 162.609 213.557 164.339 214.657 166.268 216.848 C 167.805 220.444 167.76 220.122 169.5 223.081 C 171.766 227.208 173.882 229.894 176.5 232 C 180.049 233.775 182.686 234.174 187.081 232.616 C 190.024 231.559 190.466 231.62 194.5 227.5 C 197.587 223.44 200.587 219.274 203.5 215 C 206.161 212.788 208.61 213.418 210.5 215.5 C 211.167 216.5 215.336 224.178 217.5 226.5 C 217.833 227.5 222.061 230.751 223.5 231.5 C 225.864 232.731 226.571 233.297 229.5 233.5 C 233.86 233.211 235.4 232.042 237.5 230.5 C 241.962 226.267 245.462 221.267 248 215.5 C 249.694 213.882 249.815 214.028 251.5 213.5 C 258.301 213.627 260.968 216.961 259.5 223.5 C 258.193 227.642 256.873 229.459 254.5 233.5 C 249.012 240.912 241.679 245.246 232.5 246.5 C 229.833 246.848 227.132 246.928 224.5 246.5 C 221.642 246.036 217.667 244.813 214.5 242.5 C 210.808 239.725 209.186 237.856 206.5 235.5 C 203.798 237.769 203.719 238.759 198.5 242.5 C 190.219 246.498 181.552 247.498 172.5 245.5 C 169.312 244.261 166.312 242.609 163.5 239.5 C 158.631 233.94 155.196 227.839 152.732 220.732 C 153.058 216.947 152.912 217.254 154.5 215.5 C 156.479 213.832 158.812 213.166 161.5 213.5 Z"></path>
  </g>
</svg>