<svg viewBox="21.48 19.5 1002.8525 372.0002" width="1002.852px" height="300px" style="shape-rendering:geometricPrecision; text-rendering:geometricPrecision; image-rendering:optimizeQuality; fill-rule:evenodd; clip-rule:evenodd" xmlns="http://www.w3.org/2000/svg">
  <defs/>
  <g transform="matrix(1, 0, 0, 1, 0, -1.4210854715202004e-14)">
    <path style="opacity: 1;" fill="#6244c5" d="M 144.5 19.5 C 144.5 19.5 270.611 20.117 270.5 19.5 C 281.212 20.214 286.58 19.366 305.5 25.669 C 315.285 28.929 324.179 33.84 332.5 39.5 C 339.098 43.59 341.337 45.338 346.5 49.5 C 351.355 53.515 354.6 55.32 357.5 59.5 C 360.664 62.206 362.838 65.014 366.054 69.223 C 373.575 79.089 382.252 95.108 385.054 103.223 C 386.715 107.982 388.279 114.129 389.5 120.5 C 390.331 124.989 391.677 134.766 391.5 138.5 C 390.167 184.5 390.167 230.5 391.5 276.5 C 391.303 284.077 390.552 287.825 388.5 296.5 C 386.401 303.477 383.735 310.143 380.5 316.5 C 376.475 324.618 376.268 325.619 372.5 331.5 C 370.906 335.03 370.279 335.671 367.5 339.5 C 363.785 344.712 356.029 353.571 350.5 358.5 C 346.624 362.378 344.122 364.213 340.5 366.5 C 336.231 369.968 331.824 373.729 324.964 376.653 C 320.538 379.988 316.989 381.5 312.777 382.885 C 304.301 385.756 299.445 387.125 290.5 388.5 C 284.295 389.936 277.962 390.769 271.5 391 C 227.5 391.667 183.5 391.667 139.5 391 C 132.045 390.316 129.91 390.882 123.5 389.5 C 116.948 388.335 109.669 386.867 104.5 384.5 C 95.816 381.679 94.066 380.168 88.5 376.5 C 78.072 371.293 68.739 364.627 60.5 356.5 C 53.585 351.17 50.447 345.943 46.5 340.5 C 41.41 333.867 39.209 329.818 36.5 324.5 C 33.904 319.576 31.863 316.174 30.5 312.5 C 27.726 306.507 25.726 300.174 24.5 293.5 C 22.58 287.454 21.303 277.75 21.5 272.5 C 22.833 227.833 22.833 183.167 21.5 138.5 C 21.5 137.5 21.695 132.364 22.5 125.5 C 23.302 117.256 25.302 109.256 28.5 101.5 C 32.673 89.798 34.884 87.374 40.5 78.5 C 48.396 66.023 51.811 62.886 59.301 55.368 C 70.821 44.656 74.434 43.439 81.5 38.5 C 86.478 35.507 86.569 34.894 92.5 32.5 C 99.859 28.932 107.526 25.932 115.5 23.5 C 125.922 21.14 136.732 20.042 144.5 19.5 Z M 137.5 127.5 C 145.057 133.181 144.574 133.379 146.964 137.616 C 149.17 142.347 149.39 142.343 150.5 146.5 C 151.261 149.692 151.384 149.668 151.5 154.5 C 151.004 159.78 151.18 162.342 147.5 169.5 C 145.189 173.084 143.568 174.923 139.5 178.5 C 137.4 180.076 135.938 181.136 133.5 182.5 C 131.214 183.408 130.143 183.727 127.5 184.384 C 122.438 184.61 117.438 184.392 112.5 183.5 C 109.509 182.629 106.509 181.629 103.5 180.5 C 101.178 178.556 100.516 178.59 98.036 176.429 C 95.86 173.354 93.299 172.551 90.5 165.5 C 87.834 157.502 87.834 149.502 90.5 141.5 C 91.735 138.989 92.603 136.772 94.5 134.5 C 97.545 131.453 100.878 128.787 104.5 126.5 C 115.668 121.014 126.668 121.347 137.5 127.5 Z M 288.5 122.5 C 293.537 122.413 298.537 122.746 303.5 123.5 C 306.59 125.065 307.59 125.002 309.939 126.749 C 316.272 131.082 318.167 134.167 322.5 140.5 C 324.366 145.455 325.084 151.084 324.5 156.5 C 324.235 158.955 323.321 162.392 322.5 165.5 C 321.427 167.976 321.352 168.717 319.5 171.5 C 317.065 174.292 316.34 176.281 311.5 179.5 C 309.202 181.461 307.461 181.27 303.5 182.5 C 296.585 184.26 289.718 184.393 282.5 182.5 C 279.725 181.852 274.558 179.024 272.5 177.5 C 270.823 175.46 269.156 173.46 267.5 171.5 C 265.62 168.489 264.264 165.972 263.5 162.5 C 262.728 158.548 262.395 154.548 262.5 150.5 C 263.129 144.608 265.129 139.275 268.5 134.5 C 272.337 130.724 271.902 129.33 277.5 126.5 C 280.978 124.742 284.663 123.445 288.5 122.5 Z M 161.5 213.5 C 162.609 213.557 164.339 214.657 166.268 216.848 C 167.805 220.444 167.76 220.122 169.5 223.081 C 171.766 227.208 173.882 229.894 176.5 232 C 180.049 233.775 182.686 234.174 187.081 232.616 C 190.024 231.559 190.466 231.62 194.5 227.5 C 197.587 223.44 200.587 219.274 203.5 215 C 206.161 212.788 208.61 213.418 210.5 215.5 C 211.167 216.5 215.336 224.178 217.5 226.5 C 217.833 227.5 222.061 230.751 223.5 231.5 C 225.864 232.731 226.571 233.297 229.5 233.5 C 233.86 233.211 235.4 232.042 237.5 230.5 C 241.962 226.267 245.462 221.267 248 215.5 C 249.694 213.882 249.815 214.028 251.5 213.5 C 258.301 213.627 260.968 216.961 259.5 223.5 C 258.193 227.642 256.873 229.459 254.5 233.5 C 249.012 240.912 241.679 245.246 232.5 246.5 C 229.833 246.848 227.132 246.928 224.5 246.5 C 221.642 246.036 217.667 244.813 214.5 242.5 C 210.808 239.725 209.186 237.856 206.5 235.5 C 203.798 237.769 203.719 238.759 198.5 242.5 C 190.219 246.498 181.552 247.498 172.5 245.5 C 169.312 244.261 166.312 242.609 163.5 239.5 C 158.631 233.94 155.196 227.839 152.732 220.732 C 153.058 216.947 152.912 217.254 154.5 215.5 C 156.479 213.832 158.812 213.166 161.5 213.5 Z"/>
  </g>
  <path d="M 539.07 208.17 Q 540.43 202.9 542.05 197.77 Q 543.66 192.64 546 186.3 Q 548.05 180.63 550.98 173.26 Q 553.91 165.89 557.18 158.27 Q 560.45 150.65 563.58 144.11 Q 566.7 137.56 569.24 133.66 Q 572.37 128.87 576.03 126.53 Q 579.69 124.19 586.82 124.19 L 599.61 124.19 Q 604.69 124.19 608.16 125.7 Q 611.63 127.21 613.09 132.88 Q 614.16 137.08 615.14 145.18 Q 616.12 153.29 616.8 167.64 Q 617.48 182 617.88 204.51 Q 618.27 227.02 618.27 260.12 Q 618.27 261.88 617.09 263.05 Q 615.92 264.23 614.26 264.23 L 592 264.23 Q 590.34 264.23 589.16 263.05 Q 587.99 261.88 587.99 260.03 Q 587.99 234.24 587.99 216.28 Q 587.99 198.31 587.89 186.49 Q 587.8 174.67 587.65 167.69 Q 587.5 160.71 587.21 156.9 L 586.63 156.9 Q 581.45 168.81 575.59 183.41 Q 569.73 198.01 564.16 213.49 Q 558.6 228.97 554.2 243.72 Q 552.93 248.11 551.03 249.82 Q 549.13 251.53 542.39 251.53 L 531.16 251.53 Q 525.39 251.53 523.49 250.06 Q 521.59 248.6 520.22 243.72 Q 517 232.58 513.09 220.18 Q 509.18 207.78 505.03 195.82 Q 500.88 183.85 497.03 173.75 Q 493.17 163.64 490.14 156.9 L 489.56 156.9 Q 488.77 168.42 488.19 184.93 Q 487.6 201.43 487.26 220.77 Q 486.92 240.1 486.82 260.22 Q 486.82 261.98 485.65 263.1 Q 484.48 264.23 482.82 264.23 L 462.8 264.23 Q 461.14 264.23 459.97 263.05 Q 458.79 261.88 458.79 260.03 Q 458.89 207.98 460.89 176.92 Q 462.89 145.87 465.24 135.32 Q 466.8 128.39 470.76 126.29 Q 474.71 124.19 479.79 124.19 L 495.61 124.19 Q 500.98 124.19 503.47 126.09 Q 505.96 127.99 509.57 133.46 Q 511.72 136.69 514.7 143.13 Q 517.68 149.58 520.9 157.44 Q 524.13 165.3 527.01 172.97 Q 529.89 180.63 531.74 186.3 Q 533.7 192.06 535.36 197.48 Q 537.02 202.9 538.29 208.17 Z M 640.62 131.41 Q 640.62 130.14 641.4 129.17 Q 642.18 128.19 643.45 126.63 Q 646.19 123.5 649.8 120.04 Q 653.41 116.57 657.12 113.35 Q 659.47 111.49 660.64 111.49 Q 661.81 111.49 664.25 113.35 Q 672.16 120.18 677.73 126.63 Q 679 128.09 679.83 129.12 Q 680.66 130.14 680.66 131.41 Q 680.66 132.68 679.83 133.66 Q 679 134.64 677.63 136.3 Q 674.99 139.32 671.48 142.79 Q 667.96 146.26 664.25 149.38 Q 662.88 150.55 662.1 150.89 Q 661.32 151.24 660.64 151.24 Q 659.96 151.24 659.22 150.89 Q 658.49 150.55 656.93 149.38 Q 653.02 146.26 649.6 142.79 Q 646.19 139.32 643.45 136.1 Q 642.18 134.54 641.4 133.61 Q 640.62 132.68 640.62 131.41 Z M 675.97 259.05 Q 675.97 261.98 674.75 263.1 Q 673.53 264.23 670.6 264.23 L 650.48 264.23 Q 647.55 264.23 646.33 263.1 Q 645.11 261.98 645.11 259.05 L 645.11 169.4 Q 645.11 166.47 646.33 165.35 Q 647.55 164.23 650.48 164.23 L 670.6 164.23 Q 673.53 164.23 674.75 165.35 Q 675.97 166.47 675.97 169.4 Z M 720 257.1 Q 717.17 252.7 713.94 244.84 Q 710.72 236.98 707.6 227.36 Q 704.47 217.74 701.88 208.12 Q 699.3 198.5 697.73 190.45 Q 696.17 182.39 696.17 177.8 Q 696.17 175.85 697.24 174.58 Q 701.74 169.01 710.04 162.96 Q 711.5 161.98 712.67 161.98 Q 713.94 161.98 715.31 162.96 Q 719.8 166.18 722.88 169.01 Q 725.96 171.84 728.1 174.58 Q 729.18 175.85 729.18 178.19 L 729.18 177.7 Q 729.18 183.76 729.91 191.67 Q 730.64 199.58 732.01 207.98 Q 733.38 216.37 735.28 223.99 Q 737.19 231.61 739.53 237.08 L 740.12 237.08 Q 742.65 231.61 745.49 222.82 Q 748.32 214.03 750.91 204.22 Q 753.49 194.4 755.55 185.71 Q 757.6 177.02 758.48 171.94 Q 759.16 168.13 761.55 166.86 Q 763.94 165.59 768.24 165.59 L 779.57 165.59 Q 784.45 165.59 786.55 167.06 Q 788.65 168.52 789.14 171.94 Q 789.92 177.21 791.97 186.15 Q 794.02 195.08 796.61 205.05 Q 799.2 215.01 801.83 223.7 Q 804.47 232.39 806.33 237.08 L 807.01 237.08 Q 809.94 230.63 812.58 220.43 Q 815.21 210.22 816.87 198.89 Q 818.53 187.56 818.53 177.8 L 818.53 178.19 Q 818.53 175.85 819.51 174.58 Q 821.76 171.84 824.78 169.01 Q 827.81 166.18 832.11 162.96 Q 833.48 161.98 834.65 161.98 Q 836.01 161.98 837.19 162.96 Q 841.58 166.18 844.61 169.01 Q 847.64 171.84 849.78 174.58 Q 850.76 175.85 850.76 177.99 Q 850.66 182.78 848.9 190.74 Q 847.15 198.7 844.27 208.17 Q 841.39 217.64 837.92 227.12 Q 834.45 236.59 830.89 244.5 Q 827.32 252.41 824.3 257.1 Q 822.34 260.12 820.88 261.69 Q 819.41 263.25 817.31 263.74 Q 815.21 264.23 811.11 264.23 L 800.08 264.23 Q 795.49 264.23 792.9 262.91 Q 790.31 261.59 788.07 257.1 Q 786.7 254.46 784.74 248.26 Q 782.79 242.06 780.74 234.68 Q 778.69 227.31 777.13 220.87 Q 775.57 214.42 775.08 211.39 Q 774.59 208.46 774.05 204.26 Q 773.51 200.06 773.32 197.62 L 772.83 197.62 Q 772.73 200.06 772.2 204.22 Q 771.66 208.37 771.07 211.49 Q 770.49 214.23 768.92 219.94 Q 767.36 225.65 765.16 232.54 Q 762.97 239.42 760.57 245.96 Q 758.18 252.51 756.03 257.1 Q 753.89 261.59 751.1 262.91 Q 748.32 264.23 742.26 264.23 L 730.94 264.23 Q 726.15 264.23 724.44 262.76 Q 722.73 261.3 720 257.1 Z M 696.17 177.6 L 696.17 177.8 Q 696.17 177.99 696.17 178.19 Z M 850.76 177.8 L 850.76 178.19 L 850.76 177.99 Q 850.76 177.9 850.76 177.8 Z M 866.29 131.41 Q 866.29 130.14 867.07 129.17 Q 867.86 128.19 869.13 126.63 Q 871.86 123.5 875.47 120.04 Q 879.09 116.57 882.8 113.35 Q 885.14 111.49 886.31 111.49 Q 887.48 111.49 889.93 113.35 Q 897.84 120.18 903.4 126.63 Q 904.67 128.09 905.5 129.12 Q 906.33 130.14 906.33 131.41 Q 906.33 132.68 905.5 133.66 Q 904.67 134.64 903.3 136.3 Q 900.67 139.32 897.15 142.79 Q 893.64 146.26 889.93 149.38 Q 888.56 150.55 887.78 150.89 Q 887 151.24 886.31 151.24 Q 885.63 151.24 884.9 150.89 Q 884.16 150.55 882.6 149.38 Q 878.7 146.26 875.28 142.79 Q 871.86 139.32 869.13 136.1 Q 867.86 134.54 867.07 133.61 Q 866.29 132.68 866.29 131.41 Z M 901.64 259.05 Q 901.64 261.98 900.42 263.1 Q 899.2 264.23 896.27 264.23 L 876.16 264.23 Q 873.23 264.23 872.01 263.1 Q 870.79 261.98 870.79 259.05 L 870.79 169.4 Q 870.79 166.47 872.01 165.35 Q 873.23 164.23 876.16 164.23 L 896.27 164.23 Q 899.2 164.23 900.42 165.35 Q 901.64 166.47 901.64 169.4 Z M 954.75 264.23 Q 944.7 264.23 939.47 261.69 Q 934.25 259.15 932.44 253.39 Q 930.63 247.62 930.63 238.05 L 930.63 150.36 Q 930.63 140.59 932.44 134.88 Q 934.25 129.17 939.47 126.68 Q 944.7 124.19 954.75 124.19 L 1000.65 124.19 Q 1003 124.19 1004.17 124.97 Q 1006.71 126.73 1009.44 129.17 Q 1012.18 131.61 1015.2 135.03 Q 1016.18 136.3 1016.18 137.08 Q 1016.18 137.96 1015.2 139.03 Q 1012.18 142.45 1009.44 144.89 Q 1006.71 147.33 1004.17 149.09 Q 1002.8 149.87 1000.65 149.87 L 973.31 149.87 Q 966.86 149.87 964.52 152.6 Q 962.18 155.34 962.18 161.98 L 962.18 180.92 L 997.23 180.92 Q 999.58 180.92 1000.75 181.71 Q 1003.29 183.46 1006.02 185.9 Q 1008.76 188.35 1011.79 191.76 Q 1012.76 193.03 1012.76 193.81 Q 1012.76 194.69 1011.79 195.77 Q 1008.76 199.19 1006.02 201.63 Q 1003.29 204.07 1000.75 205.83 Q 999.38 206.61 997.23 206.61 L 962.18 206.61 L 962.18 226.33 Q 962.18 232.88 964.52 235.71 Q 966.86 238.54 973.31 238.54 L 1003.88 238.54 Q 1006.22 238.54 1007.39 239.32 Q 1009.93 241.08 1012.66 243.52 Q 1015.4 245.96 1018.43 249.38 Q 1019.4 250.65 1019.4 251.43 Q 1019.4 252.31 1018.43 253.39 Q 1015.4 256.8 1012.66 259.24 Q 1009.93 261.69 1007.39 263.44 Q 1006.02 264.23 1003.88 264.23 Z" style="fill: rgb(230, 230, 230);"/>
</svg>