<svg width="30" height="12" viewBox="0 0 30 12" fill="none" xmlns="http://www.w3.org/2000/svg">
<path d="M0.176025 11V1.10001H2.81603V8.68401H6.00803V11H0.176025Z" fill="#fff"/>
<path d="M6.45953 11V4.85601H8.95553V11H6.45953ZM7.70753 3.54201C7.44353 3.54201 7.20153 3.47801 6.98153 3.35001C6.76153 3.21801 6.58553 3.04201 6.45353 2.82201C6.32553 2.60201 6.26153 2.36001 6.26153 2.09601C6.26153 1.83201 6.32553 1.59201 6.45353 1.37601C6.58553 1.15601 6.76153 0.982006 6.98153 0.854006C7.20153 0.722006 7.44353 0.656006 7.70753 0.656006C7.97153 0.656006 8.21153 0.722006 8.42753 0.854006C8.64753 0.982006 8.82153 1.15601 8.94953 1.37601C9.08153 1.59201 9.14753 1.83201 9.14753 2.09601C9.14753 2.36001 9.08153 2.60201 8.94953 2.82201C8.82153 3.04201 8.64753 3.21801 8.42753 3.35001C8.21153 3.47801 7.97153 3.54201 7.70753 3.54201Z" fill="#fff"/>
<path d="M10.4223 11V0.680006H12.9183V11H10.4223Z" fill="#fff"/>
<path d="M17.7632 11.192C16.5112 11.192 15.6051 10.962 15.0451 10.502C14.4891 10.042 14.2112 9.30001 14.2112 8.27601V4.85601H16.7071V7.65201C16.7071 8.21601 16.7852 8.61201 16.9412 8.84001C17.1012 9.06401 17.3771 9.17601 17.7691 9.17601C18.1571 9.17601 18.4291 9.06401 18.5851 8.84001C18.7411 8.61201 18.8192 8.21601 18.8192 7.65201V4.85601H21.3152V8.27601C21.3152 9.30001 21.0352 10.042 20.4752 10.502C19.9192 10.962 19.0152 11.192 17.7632 11.192Z" fill="#fff"/>
<path d="M25.1456 11.192C24.5856 11.192 24.0756 11.052 23.6156 10.772C23.1556 10.488 22.7896 10.1 22.5176 9.60801C22.2456 9.11201 22.1096 8.54801 22.1096 7.91601C22.1096 7.30401 22.2376 6.75401 22.4936 6.26601C22.7536 5.77401 23.1116 5.38401 23.5676 5.09601C24.0236 4.80801 24.5496 4.66401 25.1456 4.66401C25.4976 4.66401 25.8356 4.71601 26.1596 4.82001C26.4876 4.92001 26.7736 5.06401 27.0176 5.25201V4.85601H29.5136V11H27.0176V10.52C26.7256 10.744 26.4236 10.912 26.1116 11.024C25.8036 11.136 25.4816 11.192 25.1456 11.192ZM25.9136 9.08001C26.1376 9.08001 26.3356 9.03001 26.5076 8.93001C26.6836 8.83001 26.8196 8.69401 26.9156 8.52201C27.0156 8.34601 27.0656 8.14801 27.0656 7.92801C27.0656 7.70401 27.0156 7.50601 26.9156 7.33401C26.8156 7.16201 26.6796 7.02601 26.5076 6.92601C26.3356 6.82601 26.1376 6.77601 25.9136 6.77601C25.6936 6.77601 25.4956 6.82601 25.3196 6.92601C25.1436 7.02601 25.0036 7.16401 24.8996 7.34001C24.7996 7.51201 24.7496 7.70801 24.7496 7.92801C24.7496 8.14801 24.7996 8.34601 24.8996 8.52201C24.9996 8.69401 25.1376 8.83001 25.3136 8.93001C25.4896 9.03001 25.6896 9.08001 25.9136 9.08001Z" fill="#fff"/>
</svg>
